External Loads File
version=1
nRows=79
nColumns=13
Range=5.000000e-03-10 seconds
endheader
time 	forceRightX 	forceRightY 	forceRightZ 	pointRightX 	pointRightY 	pointRightZ 	forceLeftX 	forceLeftY 	forceLeftZ 	pointLeftX 	pointLeftY 	pointLeftZ 		
0.005000 -11.785242 60.411801 -0.000000 0.329103 0.326310 -0.106173 43.494175 83.864000 -0.000000 0.024604 0.313275 -0.340645
0.010000 -12.481357 60.805656 -0.000000 0.329110 0.326685 -0.106094 42.776934 84.466426 -0.000000 0.024585 0.313013 -0.340642
0.015000 -13.069705 61.240427 -0.000000 0.329086 0.326999 -0.106117 42.155726 85.039195 -0.000000 0.024584 0.312758 -0.340611
0.020000 -13.810907 61.656614 -0.000000 0.329042 0.327294 -0.106175 41.294548 85.753554 -0.000000 0.024586 0.311206 -0.340600
0.025000 -14.138429 62.166195 -0.000000 0.328952 0.327573 -0.106129 40.981095 86.223549 -0.000000 0.024438 0.310953 -0.340392
0.030000 -14.334603 62.687617 -0.000000 0.328891 0.327849 -0.106178 40.794021 86.650097 -0.000000 0.024388 0.310601 -0.340322
0.035000 -14.376530 63.205700 -0.000000 0.328805 0.328151 -0.106196 40.725872 87.027090 -0.000000 0.024358 0.310258 -0.340277
0.040000 -14.311539 63.697495 -0.000000 0.328763 0.328584 -0.106229 40.698900 87.377115 -0.000000 0.024336 0.309921 -0.340289
0.045000 -14.182771 64.149978 -0.000000 0.328725 0.329011 -0.106268 40.685533 87.703003 -0.000000 0.024353 0.309511 -0.340294
0.050000 -14.009773 64.558866 -0.000000 0.328737 0.329375 -0.106234 40.704323 87.997355 -0.000000 0.024365 0.309130 -0.340289
0.055000 -13.843824 64.911389 -0.000000 0.328747 0.329739 -0.106179 40.708428 88.284957 -0.000000 0.024398 0.308750 -0.340317
0.060000 -13.715027 65.199690 -0.000000 0.328777 0.330165 -0.106128 40.672207 88.571038 -0.000000 0.024375 0.308377 -0.340293
0.065000 -13.652651 65.423398 -0.000000 0.328781 0.330607 -0.106026 40.591841 88.846679 -0.000000 0.024376 0.307982 -0.340313
0.070000 -13.677853 65.590621 -0.000000 0.328769 0.331109 -0.106016 40.465436 89.106501 -0.000000 0.024383 0.307616 -0.340332
0.075000 -13.770074 65.713396 -0.000000 0.328754 0.331555 -0.106043 40.291851 89.349669 -0.000000 0.024383 0.307167 -0.340314
0.080000 -13.844899 65.805789 -0.000000 0.328752 0.331893 -0.106085 40.125831 89.561464 -0.000000 0.024328 0.306718 -0.340319
0.085000 -13.883797 65.862860 -0.000000 0.328725 0.332300 -0.106098 39.958656 89.773781 -0.000000 0.024289 0.306315 -0.340296
0.090000 -13.839500 65.888925 -0.000000 0.328700 0.332694 -0.106142 39.857811 89.991354 -0.000000 0.024272 0.305934 -0.340316
0.095000 -13.727633 65.882483 -0.000000 0.328678 0.333163 -0.106194 39.832489 90.233557 -0.000000 0.024275 0.305540 -0.340325
0.100000 -13.534726 65.857130 -0.000000 0.328677 0.333580 -0.106252 39.957069 90.471988 -0.000000 0.024217 0.305134 -0.340284
0.105000 -13.327951 65.817440 -0.000000 0.328678 0.333990 -0.106241 40.201228 90.708562 -0.000000 0.024204 0.304668 -0.340261
0.110000 -13.139962 65.778046 -0.000000 0.328728 0.334419 -0.106185 40.550605 90.928350 -0.000000 0.024169 0.304214 -0.340278
0.115000 -12.999325 65.749547 -0.000000 0.328785 0.334893 -0.106125 40.941853 91.132147 -0.000000 0.024191 0.303801 -0.340260
0.120000 -12.908561 65.736715 -0.000000 0.328845 0.335438 -0.106053 41.304407 91.320607 -0.000000 0.024183 0.303451 -0.340237
0.125000 -12.862896 65.735847 -0.000000 0.328899 0.335932 -0.106017 41.569120 91.499204 -0.000000 0.024161 0.303023 -0.340207
0.130000 -12.835088 65.743789 -0.000000 0.328897 0.336365 -0.106015 41.720654 91.665901 -0.000000 0.024158 0.302565 -0.340205
0.135000 -12.828692 65.751949 -0.000000 0.328906 0.336762 -0.106042 41.746667 91.833676 -0.000000 0.024155 0.302044 -0.340222
0.140000 -12.849001 65.753668 -0.000000 0.328894 0.337245 -0.106092 41.687506 91.996868 -0.000000 0.024161 0.301652 -0.340230
0.145000 -12.945412 65.735774 -0.000000 0.328881 0.337742 -0.106131 41.555755 92.162498 -0.000000 0.024134 0.301245 -0.340213
0.150000 -13.122798 65.694095 -0.000000 0.328835 0.338146 -0.106232 41.413419 92.316777 -0.000000 0.024116 0.300801 -0.340230
0.155000 -13.393534 65.620516 -0.000000 0.328808 0.338562 -0.106315 41.257755 92.473443 -0.000000 0.024124 0.300316 -0.340232
0.160000 -13.714393 65.515486 -0.000000 0.328801 0.339016 -0.105968 41.106221 92.630774 -0.000000 0.024161 0.299841 -0.340259
0.165000 -14.028353 65.384550 -0.000000 0.328838 0.339534 -0.105916 40.961746 92.787391 -0.000000 0.024191 0.299409 -0.340225
0.170000 -14.280849 65.239976 -0.000000 0.328859 0.340075 -0.105863 40.806330 92.943471 -0.000000 0.024199 0.298972 -0.340206
0.175000 -14.387945 65.110527 -0.000000 0.328932 0.340533 -0.105823 40.664964 93.069593 -0.000000 0.024257 0.298577 -0.340200
0.180000 -14.379880 65.007171 -0.000000 0.328944 0.340974 -0.105756 40.445382 93.183902 -0.000000 0.024320 0.298105 -0.340137
0.185000 -14.273784 64.938864 -0.000000 0.328940 0.341384 -0.105732 40.147737 93.273997 -0.000000 0.024338 0.297589 -0.340117
0.190000 -14.106351 64.894588 -0.000000 0.328948 0.341882 -0.105761 39.786764 93.335176 -0.000000 0.024343 0.297181 -0.340142
0.195000 -13.887996 64.857426 -0.000000 0.328900 0.342295 -0.105818 39.416978 93.354505 -0.000000 0.024362 0.296816 -0.340164
0.200000 -13.670117 64.801648 -0.000000 0.328854 0.342667 -0.105901 39.030899 93.351231 -0.000000 0.024411 0.296399 -0.340180
0.205000 -13.473538 64.713746 -0.000000 0.328801 0.343043 -0.105961 38.665534 93.329728 -0.000000 0.024421 0.295975 -0.340152
0.210000 -13.313364 64.588597 -0.000000 0.328769 0.343406 -0.105975 38.355228 93.291237 -0.000000 0.024427 0.295566 -0.340133
0.215000 -13.219722 64.426284 -0.000000 0.328765 0.343800 -0.105968 38.077170 93.244487 -0.000000 0.024456 0.295151 -0.340122
0.220000 -13.172791 64.240456 -0.000000 0.328815 0.344248 -0.105925 37.840220 93.173513 -0.000000 0.024509 0.294857 -0.340168
0.225000 -13.201073 64.030693 -0.000000 0.328840 0.344655 -0.105883 37.575418 93.103126 -0.000000 0.024534 0.294439 -0.340156
0.230000 -13.261901 63.805986 -0.000000 0.328879 0.345042 -0.105797 37.327595 93.027936 -0.000000 0.024559 0.294064 -0.340135
0.235000 -13.331244 63.569944 -0.000000 0.328918 0.345404 -0.105644 37.106489 92.959514 -0.000000 0.024586 0.293737 -0.340134
0.240000 -13.382006 63.330105 -0.000000 0.328906 0.345738 -0.105609 36.912536 92.906414 -0.000000 0.024611 0.293415 -0.340114
0.245000 -13.400120 63.098168 -0.000000 0.328879 0.346104 -0.105638 36.732127 92.876967 -0.000000 0.024628 0.293034 -0.340107
0.250000 -13.361703 62.893677 -0.000000 0.328787 0.346507 -0.105447 36.587065 92.864803 -0.000000 0.024666 0.292624 -0.340171
0.255000 -13.208724 62.744697 -0.000000 0.328760 0.346811 -0.105532 36.585855 92.835016 -0.000000 0.024657 0.292335 -0.340158
0.260000 -13.026048 62.644382 -0.000000 0.328747 0.347091 -0.105626 36.662737 92.822229 -0.000000 0.024653 0.292051 -0.340205
0.265000 -12.889971 62.580084 -0.000000 0.328731 0.347452 -0.105688 36.763616 92.842283 -0.000000 0.024659 0.291741 -0.340203
0.270000 -12.806619 62.547253 -0.000000 0.328715 0.347769 -0.105676 36.896431 92.868554 -0.000000 0.024715 0.291429 -0.340203
0.275000 -12.802969 62.530854 -0.000000 0.328682 0.348110 -0.105662 36.986613 92.906060 -0.000000 0.024759 0.291088 -0.340170
0.280000 -12.844139 62.523724 -0.000000 0.328695 0.348494 -0.105590 37.019616 92.953926 -0.000000 0.024787 0.290778 -0.340162
0.285000 -12.889388 62.522716 -0.000000 0.328725 0.348848 -0.105567 37.006297 93.020071 -0.000000 0.024822 0.290457 -0.340174
0.290000 -12.910971 62.528549 -0.000000 0.328710 0.349137 -0.105571 36.993635 93.101953 -0.000000 0.024826 0.290159 -0.340166
0.295000 -12.934986 62.531807 -0.000000 0.328658 0.349422 -0.105559 36.987718 93.203942 -0.000000 0.024834 0.289860 -0.340178
0.300000 -12.966121 62.523269 -0.000000 0.328603 0.349710 -0.105585 37.018520 93.310214 -0.000000 0.024847 0.289580 -0.340174
0.305000 -12.994266 62.492894 -0.000000 0.328558 0.349941 -0.105658 37.102383 93.405495 -0.000000 0.024889 0.289312 -0.340204
0.310000 -13.025806 62.429208 -0.000000 0.328517 0.350222 -0.105707 37.197350 93.497686 -0.000000 0.024934 0.289072 -0.340222
0.315000 -13.026741 62.337969 -0.000000 0.328452 0.350483 -0.105718 37.293916 93.577997 -0.000000 0.024923 0.288848 -0.340210
0.320000 -13.003815 62.226563 -0.000000 0.328417 0.350772 -0.105731 37.316297 93.659331 -0.000000 0.024947 0.288568 -0.340219
0.325000 -12.921038 62.119450 -0.000000 0.328380 0.350998 -0.105755 37.297591 93.724505 -0.000000 0.024954 0.288316 -0.340194
0.330000 -12.826069 62.025415 -0.000000 0.328366 0.351223 -0.105756 37.200628 93.809461 -0.000000 0.024955 0.288001 -0.340185
0.335000 -12.703471 61.956447 -0.000000 0.328360 0.351456 -0.105729 37.096241 93.914978 -0.000000 0.024976 0.287771 -0.340193
0.340000 -12.553578 61.907626 -0.000000 0.328364 0.351673 -0.105694 37.012975 94.043082 -0.000000 0.024982 0.287575 -0.340197
0.345000 -12.363885 61.870267 -0.000000 0.328343 0.351858 -0.105666 36.990480 94.170493 -0.000000 0.024991 0.287442 -0.340232
0.350000 -12.171516 61.824616 -0.000000 0.328336 0.352041 -0.105649 37.017829 94.283941 -0.000000 0.025008 0.287291 -0.340238
0.355000 -11.999935 61.754217 -0.000000 0.328331 0.352211 -0.105701 37.140543 94.354170 -0.000000 0.025010 0.287173 -0.340246
0.360000 -11.903139 61.639947 -0.000000 0.328315 0.352393 -0.105754 37.364757 94.381047 -0.000000 0.025000 0.287048 -0.340254
0.365000 -11.903513 61.474971 -0.000000 0.328312 0.352547 -0.105787 37.717367 94.363891 -0.000000 0.025012 0.286901 -0.340234
0.370000 -12.006951 61.262497 -0.000000 0.328265 0.352670 -0.105815 38.199992 94.309441 -0.000000 0.024987 0.286761 -0.340252
0.375000 -12.232552 61.008296 -0.000000 0.328249 0.352852 -0.105847 38.744318 94.243762 -0.000000 0.024966 0.286599 -0.340272
0.380000 -12.535176 60.732735 -0.000000 0.328225 0.352972 -0.105837 39.354873 94.152737 -0.000000 0.024967 0.286474 -0.340260
0.385000 -12.906761 60.447557 -0.000000 0.328236 0.353091 -0.105832 39.959649 94.046196 -0.000000 0.024954 0.286381 -0.340281
0.390000 -13.328256 60.161906 -0.000000 0.328252 0.353214 -0.105823 40.480481 93.936794 -0.000000 0.024972 0.286285 -0.340243
0.395000 -13.763555 59.881695 -0.000000 0.328263 0.353335 -0.105790 40.859928 93.836100 -0.000000 0.024967 0.286161 -0.340250
